<svg xmlns="http://www.w3.org/2000/svg" xmlns:xlink="http://www.w3.org/1999/xlink" width="2000" zoomAndPan="magnify" viewBox="0 0 1500 1499.999933" height="2000" preserveAspectRatio="xMidYMid meet" version="1.0"><defs><clipPath id="daf43336bc"><path d="M 750 0 C 335.785156 0 0 335.785156 0 750 C 0 1164.214844 335.785156 1500 750 1500 C 1164.214844 1500 1500 1164.214844 1500 750 C 1500 335.785156 1164.214844 0 750 0 Z M 750 0 " clip-rule="nonzero"/></clipPath><clipPath id="9f9e848df0"><path d="M 0 0 L 1500 0 L 1500 1500 L 0 1500 Z M 0 0 " clip-rule="nonzero"/></clipPath><clipPath id="e5ac3cc84d"><path d="M 750 0 C 335.785156 0 0 335.785156 0 750 C 0 1164.214844 335.785156 1500 750 1500 C 1164.214844 1500 1500 1164.214844 1500 750 C 1500 335.785156 1164.214844 0 750 0 Z M 750 0 " clip-rule="nonzero"/></clipPath><clipPath id="d32bfeb79c"><rect x="0" width="1500" y="0" height="1500"/></clipPath><clipPath id="6d91e5614b"><path d="M 264.542969 369.882812 L 1234.253906 369.882812 L 1234.253906 1202.507812 L 264.542969 1202.507812 Z M 264.542969 369.882812 " clip-rule="nonzero"/></clipPath><clipPath id="9e8d196a5f"><path d="M 971 297.5 L 1031 297.5 L 1031 476 L 971 476 Z M 971 297.5 " clip-rule="nonzero"/></clipPath></defs><g clip-path="url(#daf43336bc)"><g transform="matrix(1, 0, 0, 1, 0, 0.000000000000112861)"><g clip-path="url(#d32bfeb79c)"><g clip-path="url(#9f9e848df0)"><g clip-path="url(#e5ac3cc84d)"><rect x="-330" width="2160" fill="#000000" height="2159.999904" y="-329.999985" fill-opacity="1"/></g></g></g></g></g><path fill="#ffffff" d="M 548.460938 403.070312 L 944.503906 403.070312 C 948.160156 403.070312 951.128906 400.105469 951.128906 396.449219 L 951.128906 376.582031 C 951.128906 372.925781 948.160156 369.957031 944.503906 369.957031 L 548.460938 369.957031 C 544.804688 369.957031 541.839844 372.925781 541.839844 376.582031 L 541.839844 396.449219 C 541.839844 400.105469 544.804688 403.070312 548.460938 403.070312 " fill-opacity="1" fill-rule="nonzero"/><g clip-path="url(#6d91e5614b)"><path fill="#ffffff" d="M 1131.140625 1169.390625 L 367.660156 1169.390625 C 329 1169.390625 297.660156 1138.050781 297.660156 1099.390625 L 297.660156 633.40625 L 1201.136719 633.40625 L 1201.136719 1099.390625 C 1201.136719 1138.050781 1169.796875 1169.390625 1131.140625 1169.390625 Z M 1131.140625 369.953125 L 1057.09375 369.953125 C 1053.433594 369.953125 1050.472656 372.921875 1050.472656 376.578125 L 1050.472656 396.441406 C 1050.472656 400.101562 1053.433594 403.070312 1057.09375 403.070312 L 1131.140625 403.070312 C 1169.75 403.070312 1201.136719 434.457031 1201.136719 473.136719 L 1201.136719 600.292969 L 297.660156 600.292969 L 297.660156 473.136719 C 297.660156 434.457031 329.050781 403.070312 367.660156 403.070312 L 435.875 403.070312 C 439.53125 403.070312 442.496094 400.101562 442.496094 396.441406 L 442.496094 376.578125 C 442.496094 372.921875 439.53125 369.953125 435.875 369.953125 L 367.660156 369.953125 C 310.835938 369.953125 264.542969 416.246094 264.542969 473.136719 L 264.542969 1099.390625 C 264.542969 1156.105469 310.945312 1202.507812 367.660156 1202.507812 L 1131.140625 1202.507812 C 1187.855469 1202.507812 1234.257812 1156.105469 1234.257812 1099.390625 L 1234.257812 473.136719 C 1234.257812 416.246094 1187.960938 369.953125 1131.140625 369.953125 " fill-opacity="1" fill-rule="nonzero"/></g><path fill="#ffffff" d="M 492.167969 483.671875 C 508.59375 483.671875 521.972656 470.355469 521.972656 453.867188 L 521.972656 335.519531 C 521.972656 319.03125 508.59375 305.714844 492.167969 305.714844 C 475.679688 305.714844 462.367188 319.03125 462.367188 335.519531 L 462.367188 453.867188 C 462.367188 470.355469 475.679688 483.671875 492.167969 483.671875 " fill-opacity="1" fill-rule="nonzero"/><g clip-path="url(#9e8d196a5f)"><path fill="#ffffff" d="M 1000.796875 475.519531 C 1017.226562 475.519531 1030.601562 462.140625 1030.601562 445.71875 L 1030.601562 327.300781 C 1030.601562 310.878906 1017.226562 297.503906 1000.796875 297.503906 C 984.308594 297.503906 971 310.878906 971 327.300781 L 971 445.71875 C 971 462.140625 984.308594 475.519531 1000.796875 475.519531 " fill-opacity="1" fill-rule="nonzero"/></g></svg>